<?xml version="1.0" encoding="UTF-8" standalone="no"?>
<svg version="1.1" id="Layer_1" xmlns="http://www.w3.org/2000/svg" xmlns:xlink="http://www.w3.org/1999/xlink" x="0px" y="0px"
	 viewBox="0 0 512 512" style="enable-background:new 0 0 512 512;" xml:space="preserve">
  <g
   id="XMLID_5_"
   style="opacity:1;fill:#ffffff">
    <path
   id="XMLID_9_"
   d="m 366.2,321.6 h -23 l -8,-8 C 364.3,280.5 381.3,237.5 381.3,190.4 381.2,85.2 296.1,0 190.9,0 85.7,0 0.5,85.2 0.5,190.4 c 0,105.2 85.2,190.4 190.4,190.4 47.1,0 90.2,-17 123.2,-46.1 l 8,8 v 23 L 468.4,512 511.5,468.9 Z m -175.3,0 c -73.1,0 -131.3,-59.1 -131.3,-131.3 0,-72.2 59.1,-131.2 131.3,-131.2 72.2,0 131.3,59.1 131.3,131.3 0,72.2 -58.2,131.2 -131.3,131.2 z"
   style="fill:#ffffff" />
  </g>
</svg>
